<svg width="18" height="11" viewBox="0 0 18 11" fill="none" xmlns="http://www.w3.org/2000/svg">
<path d="M8.96466 11C8.7289 11.0014 8.49518 10.9551 8.27691 10.864C8.05864 10.7728 7.86012 10.6385 7.69272 10.4687L0.526856 3.14035C0.359822 2.96953 0.227324 2.76674 0.136926 2.54355C0.0465282 2.32036 3.674e-07 2.08115 3.21641e-07 1.83957C2.75883e-07 1.598 0.046528 1.35879 0.136926 1.1356C0.227324 0.912411 0.359822 0.709619 0.526856 0.538798C0.693889 0.367978 0.892187 0.232475 1.11043 0.140028C1.32867 0.0475806 1.56258 -2.76809e-07 1.7988 -3.14512e-07C2.03502 -3.52214e-07 2.26893 0.0475804 2.48717 0.140028C2.70541 0.232475 2.9037 0.367977 3.07074 0.538798L8.96466 6.60298L14.8765 0.776966C15.0413 0.589563 15.2421 0.43895 15.4665 0.334547C15.6908 0.230144 15.9337 0.174197 16.1802 0.170205C16.4266 0.166212 16.6712 0.214259 16.8986 0.311342C17.126 0.408426 17.3314 0.552458 17.502 0.734428C17.6725 0.916398 17.8044 1.13239 17.8896 1.3689C17.9748 1.60541 18.0113 1.85735 17.9969 2.10896C17.9826 2.36057 17.9176 2.60644 17.806 2.8312C17.6945 3.05595 17.5388 3.25475 17.3487 3.41516L10.1829 10.487C9.85525 10.81 9.4197 10.9934 8.96466 11Z" fill="#0A1120"/>
</svg>
