<svg width="23" height="15" viewBox="0 0 23 15" fill="none" xmlns="http://www.w3.org/2000/svg">
<path d="M0.733446 1.6075L10.3168 6.64375C10.6388 6.8125 11.0553 6.8925 11.4744 6.8925C11.8936 6.8925 12.3101 6.8125 12.6321 6.64375L22.2154 1.6075C22.8403 1.27875 23.4306 0 22.2844 0H0.665724C-0.480442 0 0.109891 1.27875 0.733446 1.6075ZM22.5055 4.36125L12.6321 9.395C12.1977 9.6175 11.8936 9.64375 11.4744 9.64375C11.0553 9.64375 10.7512 9.6175 10.3168 9.395C9.88233 9.1725 1.20239 4.72125 0.493224 4.36C-0.00510896 4.105 2.06494e-06 4.40375 2.06494e-06 4.63375V13.75C2.06494e-06 14.275 0.723224 15 1.27778 15H21.7222C22.2768 15 23 14.275 23 13.75V4.635C23 4.405 23.0051 4.10625 22.5055 4.36125Z" fill="#E4A745"/>
</svg>
